<?xml version="1.0" encoding="UTF-8" standalone="no"?><!DOCTYPE svg PUBLIC "-//W3C//DTD SVG 1.1//EN" "http://www.w3.org/Graphics/SVG/1.1/DTD/svg11.dtd"><svg width="100%" height="100%" viewBox="0 0 1911 1835" version="1.1" xmlns="http://www.w3.org/2000/svg" xmlns:xlink="http://www.w3.org/1999/xlink" xml:space="preserve" xmlns:serif="http://www.serif.com/" style="fill-rule:evenodd;clip-rule:evenodd;stroke-linecap:round;stroke-linejoin:round;stroke-miterlimit:1.5;"><g><rect x="1.042" y="681.874" width="742.211" height="632.291" style="fill:none;stroke:#4d4d4d;stroke-width:2.08px;"/><g id="Node"><rect x="31.412" y="715.739" width="681.471" height="128.747" style="fill:#ebebeb;"/><text x="131.779px" y="798.02px" style="font-family:'ArialMT', 'Arial', sans-serif;font-size:50px;">CameraDataCollector</text></g><g id="Node1" serif:id="Node"><rect x="31.412" y="861.152" width="681.471" height="128.747" style="fill:#ebebeb;"/><text x="179.02px" y="943.433px" style="font-family:'ArialMT', 'Arial', sans-serif;font-size:50px;">ImuDataCollector</text></g><g id="Node2" serif:id="Node"><rect x="31.412" y="1006.57" width="681.471" height="128.747" style="fill:#ebebeb;"/><text x="90.067px" y="1088.85px" style="font-family:'ArialMT', 'Arial', sans-serif;font-size:50px;">MicrophoneDataCollector</text></g><g id="Node3" serif:id="Node"><rect x="31.412" y="1151.98" width="681.471" height="128.747" style="fill:#ebebeb;"/><text x="78.946px" y="1234.26px" style="font-family:'ArialMT', 'Arial', sans-serif;font-size:50px;">PulseSensorDataCollector</text></g></g><g><rect x="943.51" y="471.291" width="966.195" height="1362.65" style="fill:none;stroke:#4d4d4d;stroke-width:2.08px;"/><g><rect x="979.677" y="505.155" width="899.658" height="128.747" style="fill:#ebebeb;"/><text x="1091.84px" y="587.436px" style="font-family:'ArialMT', 'Arial', sans-serif;font-size:50px;">CloudCommunicationManager</text></g><g><rect x="979.677" y="650.568" width="899.658" height="128.747" style="fill:#ebebeb;"/><text x="1068.18px" y="732.849px" style="font-family:'ArialMT', 'Arial', sans-serif;font-size:50px;">ContextualInterventionsManager</text></g><g><rect x="979.677" y="795.982" width="899.658" height="128.747" style="fill:#ebebeb;"/><text x="1168.25px" y="878.263px" style="font-family:'ArialMT', 'Arial', sans-serif;font-size:50px;">DataCollectionManager</text></g><g><rect x="979.677" y="941.395" width="899.658" height="128.747" style="fill:#ebebeb;"/><text x="1154.36px" y="1023.68px" style="font-family:'ArialMT', 'Arial', sans-serif;font-size:50px;">DataProcessingManager</text></g><g><rect x="979.677" y="1086.81" width="899.658" height="128.747" style="fill:#ebebeb;"/><text x="1190.47px" y="1169.09px" style="font-family:'ArialMT', 'Arial', sans-serif;font-size:50px;">DataStorageManager</text></g><g><rect x="979.677" y="1232.22" width="899.658" height="128.747" style="fill:#ebebeb;"/><text x="1084.87px" y="1314.5px" style="font-family:'ArialMT', 'Arial', sans-serif;font-size:50px;">PhoneCommunicationManager</text></g><g><rect x="979.677" y="1377.63" width="899.658" height="128.747" style="fill:#ebebeb;"/><text x="1228px" y="1459.92px" style="font-family:'ArialMT', 'Arial', sans-serif;font-size:50px;">PiStartupManager</text></g><g><rect x="979.677" y="1523.05" width="899.658" height="128.747" style="fill:#ebebeb;"/><text x="1201.58px" y="1605.33px" style="font-family:'ArialMT', 'Arial', sans-serif;font-size:50px;">PushButtonManager</text></g><g><rect x="979.677" y="1668.46" width="899.658" height="128.747" style="fill:#ebebeb;"/><text x="1197.41px" y="1750.74px" style="font-family:'ArialMT', 'Arial', sans-serif;font-size:50px;">PythonManagerShell</text></g></g><g id="Node4" serif:id="Node"><rect x="662.535" y="0" width="561.949" height="128.747" style="fill:#ebebeb;"/><text x="737.821px" y="82.281px" style="font-family:'ArialMT', 'Arial', sans-serif;font-size:50px;">Node.js Codebase</text></g><path d="M943.51,179.05l0,-50.303" style="fill:none;stroke:#4d4d4d;stroke-width:2.08px;"/><g id="Node5" serif:id="Node"><rect x="154.73" y="225.937" width="434.835" height="128.747" style="fill:#ebebeb;"/><text x="201.249px" y="308.218px" style="font-family:'ArialMT', 'Arial', sans-serif;font-size:50px;">Data Collectors</text></g><path d="M372.147,354.684l0,333.976" style="fill:none;stroke:#4d4d4d;stroke-width:2.08px;"/><g id="Node6" serif:id="Node"><rect x="1.042" y="471.291" width="742.211" height="128.747" style="fill:#ebebeb;"/><text x="141.483px" y="553.572px" style="font-family:'ArialMT', 'Arial', sans-serif;font-size:50px;">SensorDataCollector</text></g><g id="Node7" serif:id="Node"><rect x="1209.19" y="225.937" width="434.835" height="128.747" style="fill:#ebebeb;"/><text x="1315.44px" y="308.218px" style="font-family:'ArialMT', 'Arial', sans-serif;font-size:50px;">Managers</text></g><path d="M1426.61,354.684l0,116.607" style="fill:none;stroke:#4d4d4d;stroke-width:2.08px;"/><path d="M372.147,225.937l0,-46.887l1054.46,0l0,46.887" style="fill:none;stroke:#4d4d4d;stroke-width:2.08px;"/></svg>